<svg xmlns="http://www.w3.org/2000/svg" viewBox="0 0 380 90" width="100%" height="100%">
  <defs>
    <linearGradient id="cloudGrad" x1="0%" y1="0%" x2="100%" y2="100%">
      <stop offset="0%" stop-color="#0284c7" />
      <stop offset="50%" stop-color="#0b2569" />
      <stop offset="100%" stop-color="#0369a1" />
    </linearGradient>
    <linearGradient id="accentGrad" x1="0%" y1="0%" x2="100%" y2="100%">
      <stop offset="0%" stop-color="#38bdf8" />
      <stop offset="100%" stop-color="#0284c7" />
    </linearGradient>
  </defs>

  <!-- Stylized Cloud / Tech Icon -->
  <g transform="translate(5, 5)">
    <!-- Main Cloud Base -->
    <path d="M 52,22 C 48,10 35,4 23,8 C 12,12 5,23 7,35 C 2,39 0,46 2,52 C 4,60 11,66 20,66 L 58,66 C 68,66 76,58 76,48 C 76,38 68,30 58,30 C 56,30 54,31 52,32 Z" fill="url(#cloudGrad)" />
    
    <!-- Dynamic Inner Swirls / Circuit -->
    <path d="M 18,52 C 16,42 22,34 32,32 C 42,30 50,36 52,45 C 53,50 50,54 44,54 C 38,54 36,49 38,44 C 39,40 43,38 46,40" fill="none" stroke="#ffffff" stroke-width="4.5" stroke-linecap="round" stroke-linejoin="round" />
    <circle cx="28" cy="52" r="3.5" fill="#38bdf8" />
    <circle cx="56" cy="42" r="3.5" fill="#ffffff" />
  </g>

  <!-- Typography -->
  <g transform="translate(95, 28)">
    <text x="0" y="0" font-family="'Outfit', 'Plus Jakarta Sans', Arial, sans-serif" font-size="25" font-weight="900" fill="#0b2569" letter-spacing="-0.5">CSVS IT Tech</text>
    <text x="0" y="16" font-family="'Plus Jakarta Sans', Arial, sans-serif" font-size="7.5" font-weight="700" fill="#475569" letter-spacing="1.2">SOFTWARE  |  SOLUTIONS  |  INNOVATION</text>
    <text x="0" y="30" font-family="'Plus Jakarta Sans', Arial, sans-serif" font-size="7.5" font-weight="600" fill="#0284c7" letter-spacing="0.8">YOUR TECHNOLOGY PARTNER</text>
  </g>
</svg>
